<svg id="SvgjsSvg1001" width="288" height="288" xmlns="http://www.w3.org/2000/svg" version="1.1" xmlns:xlink="http://www.w3.org/1999/xlink" xmlns:svgjs="http://svgjs.com/svgjs"><defs id="SvgjsDefs1002"></defs><g id="SvgjsG1008" transform="matrix(1,0,0,1,0,0)"><svg xmlns="http://www.w3.org/2000/svg" width="288" height="288" version="1" viewBox="0 0 32 32"><g transform="matrix(.99298 0 0 .99621 .024 .12)" fill="#000000" class="color000 svgShape"><rect stroke-linejoin="round" style="isolation:auto;mix-blend-mode:normal" width="17.97" height="27.397" x="10.897" y="-2.463" fill="#45a247" stroke="#373748" stroke-linecap="round" stroke-width="1.005" color="#000" overflow="visible" rx="0" ry="0" transform="rotate(15)" class="color5fd38d svgShape colorStroke373748 svgStroke"></rect><rect stroke-linejoin="round" style="isolation:auto;mix-blend-mode:normal" width="17.97" height="27.397" x="3.479" y="4.161" fill="#f2f2f2" stroke="#373748" stroke-linecap="round" stroke-width="1.005" color="#000" overflow="visible" rx="0" ry="0" class="colorf2f2f2 svgShape colorStroke373748 svgStroke"></rect><path fill="#373748" d="m 19.066695,30.232431 c -0.298996,0 -0.541387,-0.23738 -0.541351,-0.530348 2.47e-4,-0.09545 0.02687,-0.189127 0.07698,-0.271052 -0.02554,0 -0.05126,0.0088 -0.07698,0.0088 -0.298873,-8.9e-5 -0.54114,-0.23738 -0.541193,-0.530172 -3.5e-5,-0.292881 0.242258,-0.530261 0.541193,-0.530349 0.07477,0 0.145998,0.01502 0.210769,0.04154 0.06478,0.02651 0.123038,0.0654 0.172017,0.113741 0.02448,0.02386 0.04666,0.05037 0.06611,0.07866 0.0053,0.0088 0.01008,0.01591 0.01511,0.02475 -0.0525,-0.41926 -0.09298,-0.90215 -0.247411,-1.053363 l 0.649499,0 c -0.154439,0.151213 -0.19488,0.634103 -0.247411,1.053363 0.0053,-0.0088 0.0096,-0.01679 0.01511,-0.02475 0.01944,-0.02828 0.04163,-0.05479 0.06611,-0.07866 0.04896,-0.04772 0.107254,-0.08661 0.172026,-0.113741 0.06478,-0.02651 0.13602,-0.04154 0.210769,-0.04154 0.299005,0 0.541387,0.237468 0.541352,0.530349 -5.3e-5,0.292792 -0.242417,0.530172 -0.541352,0.530172 -0.02572,0 -0.05144,0 -0.07689,-0.0088 0.05002,0.08219 0.07662,0.175605 0.07689,0.271052 3.6e-5,0.292968 -0.242355,0.530348 -0.541351,0.530348 z" color="#000" overflow="visible" style="isolation:auto;mix-blend-mode:normal" class="color373748 svgShape"></path><path fill="#373748" stroke="#373748" stroke-linecap="round" stroke-linejoin="round" stroke-width="1.005" d="m 12.463627,13.442882 c -0.996678,-8.8e-5 -1.804653,0.791414 -1.80453,1.7678 8.4e-4,0.318333 0.08963,0.63048 0.256708,0.903564 -0.08502,-0.01237 -0.17077,-0.01944 -0.256708,-0.01944 -0.9962442,2.65e-4 -1.8038044,0.791326 -1.80399,1.767182 -1.237e-4,0.976209 0.8075249,1.767623 1.80399,1.7678 0.24917,0 0.486665,-0.04949 0.702569,-0.138663 0.215904,-0.08944 0.41013,-0.219175 0.573406,-0.379137 0.08166,-0.08042 0.15564,-0.167385 0.2205,-0.261418 0.01803,-0.02651 0.03367,-0.05391 0.05029,-0.08131 -0.175101,1.397679 -0.309928,3.007196 -0.824705,3.511385 l 2.165001,0 c -0.514777,-0.504189 -0.649596,-2.113706 -0.824715,-3.511385 0.01661,0.0274 0.03226,0.05479 0.05029,0.08131 0.06487,0.09403 0.138866,0.181438 0.2205,0.261418 0.163285,0.159962 0.357501,0.289699 0.573415,0.379137 0.215895,0.08944 0.453399,0.138663 0.702568,0.138663 0.996678,8.8e-5 1.804645,-0.791414 1.80453,-1.7678 -1.86e-4,-0.976033 -0.808073,-1.76727 -1.80453,-1.767182 -0.08573,0 -0.171371,0.0088 -0.256169,0.01944 0.166891,-0.273084 0.255392,-0.585319 0.256169,-0.903564 1.24e-4,-0.976386 -0.807852,-1.767888 -1.804529,-1.7678 z" color="#000" overflow="visible" style="isolation:auto;mix-blend-mode:normal" class="color373748 svgShape colorStroke373748 svgStroke"></path><path style="isolation:auto;mix-blend-mode:normal" fill="#373748" d="m 5.7657211,5.4870309 c -0.2989962,0 -0.5413871,0.2373799 -0.5413517,0.5303489 2.474e-4,0.095447 0.026867,0.1891262 0.076976,0.2710514 -0.025541,0 -0.051259,-0.00884 -0.076976,-0.00884 -0.2988725,8.83e-5 -0.5411397,0.2373799 -0.5411927,0.5301721 -3.54e-5,0.2928805 0.2422583,0.5302604 0.5411927,0.5303488 0.074767,0 0.1459983,-0.015024 0.2107697,-0.041537 0.06478,-0.026513 0.1230381,-0.065399 0.1720165,-0.1137408 0.02448,-0.023862 0.046663,-0.050375 0.066106,-0.078655 0.0053,-0.00884 0.010075,-0.015908 0.015112,-0.024745 -0.052496,0.4192593 -0.092981,0.9021498 -0.2474107,1.0533624 l 0.6494984,0 C 5.9360231,7.9835856 5.8955819,7.5006951 5.8430508,7.0814358 c 0.0053,0.00884 0.00963,0.016792 0.015112,0.024745 0.019443,0.028281 0.041625,0.054793 0.066106,0.078655 0.048961,0.047723 0.107254,0.086609 0.1720253,0.1137408 0.06478,0.026513 0.1360207,0.041537 0.2107697,0.041537 0.2990051,0 0.5413871,-0.2374683 0.5413518,-0.5303488 -5.3e-5,-0.2927922 -0.2424174,-0.5301721 -0.5413518,-0.5301721 -0.025718,0 -0.051435,0 -0.076888,0.00884 0.050021,-0.08219 0.076623,-0.1756046 0.076888,-0.2710514 3.54e-5,-0.292969 -0.2423555,-0.5303489 -0.5413517,-0.5303489 z" color="#000" overflow="visible" class="color373748 svgShape"></path></g></svg></g></svg>